<?xml version="1.0" encoding="utf-8"?>
<!-- Generator: Adobe Illustrator 17.0.2, SVG Export Plug-In . SVG Version: 6.00 Build 0)  -->
<!DOCTYPE svg PUBLIC "-//W3C//DTD SVG 1.1//EN" "http://www.w3.org/Graphics/SVG/1.1/DTD/svg11.dtd">
<svg version="1.1" id="Ebene_1" xmlns="http://www.w3.org/2000/svg" xmlns:xlink="http://www.w3.org/1999/xlink" x="0px" y="0px"
	 width="185.378px" height="41.936px" viewBox="48.482 50.18 185.378 41.936" enable-background="new 48.482 50.18 185.378 41.936"
	 xml:space="preserve">
<path fill="#1D2D39" d="M138.572,68.897l0.228,0.224v1.575l-0.228,0.229h-10.354l-0.227-0.229v-1.575l0.227-0.224h4.279l0.226-0.226
	v-6.755l-0.226-0.227h-3.154l-0.228-0.225v-1.579l0.228-0.225h5.403l0.227,0.225v8.785l0.227,0.226L138.572,68.897L138.572,68.897z
	 M126.605,65.294v0.675l-0.224,0.224h-7.883l-0.225,0.229c0,0.448,0.225,2.703,3.153,2.703c1.125,0,2.027-0.227,2.476-1.354
	l0.228-0.227h1.802l0.227,0.227c-0.227,1.802-1.806,3.379-4.731,3.379c-3.828,0-5.627-2.478-5.627-5.855
	c0-3.156,1.572-5.855,5.402-5.855C125.03,59.438,126.605,62.138,126.605,65.294z M124.13,64.168c0-0.676-0.228-2.702-2.928-2.702
	c-2.704,0-2.929,2.026-2.929,2.702l0.225,0.225h5.404L124.13,64.168z M134.972,57.862l0.227-0.226v-2.252l-0.227-0.228h-2.703
	l-0.226,0.228v2.252l0.226,0.226H134.972z M109.937,59.438c-2.251,0-3.152,1.348-3.152,1.348h-0.227l-0.225-0.899l-0.223-0.225
	h-1.577l-0.227,0.225v10.81l0.227,0.229h1.8l0.225-0.229v-5.63c0-2.702,1.128-3.601,3.153-3.601c1.575,0,2.479,0.672,2.479,2.25
	l0.223,0.227h1.803l0.227-0.227C114.442,60.564,112.19,59.438,109.937,59.438z M99.79,54.903c-2.43,0-4.426,1.302-4.5,4.54
	l-0.003-0.003l-0.227,0.222h-2.922l-0.226,0.225v1.579l0.226,0.225h2.929l0.227,0.225v8.781l0.225,0.229h1.797l0.23-0.229v-8.781
	l0.223-0.225h4.504l0.229-0.225v-1.579l-0.229-0.225h-3.57h-0.934h-0.001l-0.224-0.219c0.063-2.082,1.149-2.512,2.246-2.512l0,0
	h2.485l0.228-0.226V55.13l-0.228-0.227H99.79z M172.4,57.862l0.229-0.226v-2.252l-0.229-0.228h-2.702l-0.223,0.228v2.252
	l0.223,0.226H172.4z M218.405,65.294c0,3.604-2.254,5.855-5.629,5.855h-0.225c-3.38,0-5.63-2.252-5.63-5.855s2.25-5.855,5.63-5.855
	h0.225C216.151,59.438,218.405,61.69,218.405,65.294z M216.151,65.294c0-2.479-1.35-3.828-3.375-3.828h-0.225
	c-2.026,0-3.38,1.35-3.38,3.828c0,2.477,1.354,3.83,3.38,3.83h0.225C214.801,69.124,216.151,67.771,216.151,65.294z M189.363,68.221
	l-0.224,0.226v2.25l0.224,0.229h2.703l0.225-0.229v-2.25l-0.225-0.226H189.363z M199.639,61.466c1.578,0,2.48,0.672,2.702,2.024
	l0.229,0.225h1.8l0.227-0.225c-0.227-2.924-2.705-4.052-4.957-4.052c-3.604,0-5.626,2.252-5.626,5.855s2.021,5.855,5.626,5.855
	c2.252,0,4.73-1.128,4.957-4.055l-0.227-0.226h-1.8l-0.229,0.226c-0.223,1.351-1.124,2.029-2.702,2.029
	c-2.251,0-3.376-1.354-3.376-3.83C196.263,62.815,197.388,61.466,199.639,61.466z M230.372,59.438c-1.351,0-2.03,0.676-2.254,1.351
	h-0.227c-0.223-0.675-0.9-1.351-2.027-1.351c-1.352,0-2.025,0.676-2.251,1.351h-0.225l-0.222-0.902l-0.226-0.225h-1.58l-0.225,0.225
	V70.7l0.225,0.226h1.806l0.222-0.226v-6.757c0-2.027,0.679-2.477,1.577-2.477c0.899,0,1.129,0.674,1.129,2.024v7.209l0.224,0.226
	h1.801l0.224-0.226v-6.757c0-2.027,0.68-2.477,1.577-2.477c0.9,0,1.126,0.674,1.126,2.024v7.209l0.229,0.226h1.799l0.226-0.226
	v-6.983C233.297,61.239,232.85,59.438,230.372,59.438z M146.371,59.438c-2.251,0-3.15,1.348-3.15,1.348h-0.229v-5.399l-0.22-0.228
	h-1.803l-0.227,0.228V70.7l0.227,0.226h1.803l0.22-0.226v-5.63c0-2.703,1.354-3.603,3.155-3.603c1.8,0,2.476,1.35,2.476,2.699V70.7
	l0.227,0.226h1.802l0.226-0.226v-6.534C150.877,61.69,149.75,59.438,146.371,59.438z M164.156,65.294v0.675l-0.226,0.224h-7.88
	l-0.227,0.229c0,0.448,0.227,2.703,3.151,2.703c1.126,0,2.028-0.227,2.479-1.354l0.227-0.227h1.801l0.224,0.227
	c-0.224,1.802-1.799,3.379-4.729,3.379c-3.828,0-5.63-2.478-5.63-5.855c0-3.156,1.577-5.855,5.406-5.855
	C162.579,59.438,164.156,62.138,164.156,65.294z M161.679,64.168c0-0.676-0.227-2.702-2.929-2.702c-2.7,0-2.928,2.026-2.928,2.702
	l0.227,0.225h5.402L161.679,64.168z M172.628,68.897l-0.229-0.226v-8.785l-0.221-0.225h-5.406l-0.227,0.225v1.579l0.227,0.225h3.153
	l0.225,0.227v6.755l-0.225,0.226h-4.279l-0.224,0.224v1.575l0.224,0.229h10.358l0.227-0.229v-1.575l-0.227-0.224L172.628,68.897
	L172.628,68.897z M184.987,66.421l-0.229,0.225v0.449c0,1.575-1.124,2.026-2.024,2.026c-1.129,0-2.251-0.451-2.251-2.7v-4.506
	l0.227-0.225h3.827l0.221-0.225v-1.579l-0.221-0.225h-3.827l-0.227-0.224v-4.168l-0.226-0.224h-1.803l-0.224,0.224v4.168
	l-0.229,0.224h-1.8l-0.225,0.225v1.579l0.225,0.225h1.8l0.229,0.225v4.506c0,3.377,2.026,4.729,4.503,4.729
	c1.804,0,4.277-0.9,4.277-4.055v-0.449l-0.226-0.225H184.987z"/>
<path fill="#1D2D39" d="M98.724,80.521l0.153,0.156v1.086l-0.153,0.156h-1.71l-0.156,0.156v4.193c0,0.467,0.311,0.622,0.622,0.622
	h1.244l0.153,0.155v1.088l-0.153,0.155H97.48c-1.089,0-2.176-0.621-2.176-2.021v-4.193l-0.154-0.156h-1.089l-0.154-0.156v-1.086
	l0.154-0.156h1.089l0.154-0.155v-1.397l0.155-0.156h1.244l0.154,0.156v1.397l0.156,0.155L98.724,80.521L98.724,80.521z
	 M107.325,84.405v0.466l-0.155,0.155h-5.127l-0.155,0.156c0,0.31,0.155,1.863,2.021,1.863c0.62,0,1.242-0.155,1.554-0.932
	l0.155-0.156h1.242l0.154,0.156c-0.154,1.242-1.241,2.33-3.105,2.33c-2.487,0-3.729-1.709-3.729-4.039
	c0-2.175,1.087-4.04,3.572-4.04C106.237,80.365,107.325,82.23,107.325,84.405z M105.617,83.628c0-0.466-0.155-1.865-1.865-1.865
	c-1.709,0-1.864,1.399-1.864,1.865l0.155,0.154h3.419L105.617,83.628z M112.54,81.763c1.242,0,1.709,0.623,1.864,1.244l0.155,0.155
	h1.243l0.155-0.155c-0.155-1.398-1.244-2.642-3.418-2.642c-2.331,0-3.729,1.554-3.729,4.04c0,2.485,1.398,4.039,3.729,4.039
	c2.174,0,3.263-1.242,3.418-2.642l-0.155-0.155h-1.243l-0.155,0.155c-0.155,0.622-0.622,1.243-1.864,1.243
	c-1.399,0-2.175-0.932-2.175-2.641C110.365,82.696,111.14,81.763,112.54,81.763z M121.637,80.365c-1.398,0-2.019,0.933-2.019,0.933
	h-0.155v-3.729l-0.156-0.155h-1.242l-0.156,0.155v10.565l0.156,0.155h1.242l0.156-0.155v-3.885c0-1.863,0.776-2.486,2.019-2.486
	c1.244,0,1.555,0.934,1.555,1.865v4.506l0.155,0.155h1.241l0.156-0.155v-4.506C124.589,81.919,123.968,80.365,121.637,80.365z
	 M130.426,80.365c-1.399,0-2.021,0.933-2.021,0.933h-0.155l-0.155-0.621l-0.155-0.156h-1.088l-0.155,0.156v7.457l0.155,0.155h1.243
	l0.155-0.155v-3.729c0-1.864,0.621-2.643,2.02-2.643c1.397,0,1.554,1.088,1.554,1.865v4.506l0.155,0.155h1.243l0.155-0.155v-4.506
	C133.378,81.763,132.601,80.365,130.426,80.365z M142.433,84.405c0,2.485-1.398,4.039-3.728,4.039c-2.331,0-3.73-1.554-3.73-4.039
	c0-2.486,1.398-4.04,3.73-4.04C141.035,80.365,142.433,81.919,142.433,84.405z M140.878,84.405c0-1.709-0.775-2.643-2.173-2.643
	c-1.399,0-2.176,0.934-2.176,2.643s0.776,2.641,2.176,2.641C140.103,87.046,140.878,86.114,140.878,84.405z M148.057,86.891
	l-0.154-0.155v-9.167l-0.157-0.155h-3.729l-0.155,0.155v1.088l0.155,0.155h2.176l0.155,0.156v7.768l-0.155,0.155h-2.951
	l-0.156,0.155v1.088l0.156,0.155h7.146l0.156-0.155v-1.088l-0.156-0.155C150.388,86.891,148.057,86.891,148.057,86.891z
	 M158.666,84.405c0,2.485-1.398,4.039-3.729,4.039c-2.33,0-3.729-1.554-3.729-4.039c0-2.486,1.398-4.04,3.729-4.04
	C157.268,80.365,158.666,81.919,158.666,84.405z M157.114,84.405c0-1.709-0.778-2.643-2.177-2.643c-1.397,0-2.175,0.934-2.175,2.643
	s0.777,2.641,2.175,2.641C156.335,87.046,157.114,86.114,157.114,84.405z M167.087,80.521l0.155,0.156v6.68
	c0,3.106-1.709,4.195-3.573,4.195c-1.865,0-2.952-0.933-3.107-2.175l0.155-0.156h1.242l0.156,0.156
	c0.311,0.62,0.775,0.776,1.554,0.776c1.397,0,2.02-0.933,2.02-2.643h-0.155c0,0-0.621,0.934-2.02,0.934
	c-2.175,0-3.417-1.709-3.417-4.039s1.242-4.04,3.417-4.04c1.399,0,2.02,0.933,2.02,0.933h0.155l0.155-0.621l0.154-0.156
	C165.998,80.521,167.087,80.521,167.087,80.521z M165.689,84.405c0-1.864-0.776-2.643-2.02-2.643c-1.243,0-2.02,0.934-2.02,2.643
	s0.776,2.641,2.02,2.641S165.689,86.269,165.689,84.405z M173.981,86.891l-0.156-0.155v-6.059l-0.155-0.156h-3.727l-0.157,0.156
	v1.086l0.157,0.156h2.174l0.155,0.156v4.66l-0.155,0.155h-2.952l-0.155,0.155v1.088l0.155,0.155h7.146l0.155-0.155v-1.088
	l-0.155-0.155L173.981,86.891L173.981,86.891z M173.825,79.276l0.156-0.154v-1.554l-0.156-0.155h-1.863l-0.155,0.155v1.554
	l0.155,0.154H173.825z M184.439,84.405v0.466l-0.154,0.155h-5.127l-0.156,0.156c0,0.31,0.156,1.863,2.02,1.863
	c0.621,0,1.243-0.155,1.553-0.932l0.156-0.156h1.242l0.156,0.156c-0.156,1.242-1.244,2.33-3.107,2.33
	c-2.485,0-3.729-1.709-3.729-4.039c0-2.175,1.087-4.04,3.573-4.04C183.352,80.365,184.439,82.23,184.439,84.405z M182.731,83.628
	c0-0.466-0.156-1.865-1.865-1.865c-1.708,0-1.864,1.399-1.864,1.865l0.156,0.154h3.417L182.731,83.628z M189.948,83.782
	c-1.553-0.31-2.174-0.465-2.174-1.241c0-0.622,0.621-0.778,1.397-0.778c1.088,0,1.397,0.468,1.397,0.934l0.155,0.154h1.244
	l0.154-0.154c0-1.554-1.242-2.331-2.951-2.331c-2.176,0-2.952,1.088-2.952,2.176c0,1.398,0.933,2.02,2.486,2.33
	c1.554,0.312,2.019,0.466,2.019,1.243c0,0.621-0.465,0.932-1.553,0.932c-1.089,0-1.554-0.467-1.554-1.243l-0.155-0.155h-1.243
	l-0.155,0.155c0,1.708,1.088,2.642,3.107,2.642c2.176,0,3.107-1.088,3.107-2.33C192.279,84.716,191.503,84.095,189.948,83.782z"/>
<path fill="#1D2D39 " d="M67.182,53.187l0.003-0.002l-0.229-0.224l-0.002,0.003v-2.557l-0.22-0.227h-2.215l-0.228,0.227v2.557
	l-0.227,0.223c-8.414,0.471-15.021,4.616-15.021,9.719s6.607,9.248,15.022,9.72l0.225,0.221v2.575l0.22,0.227h2.216l0.227-0.227
	v-2.576l0.002,0.004l0.228-0.224c8.415-0.472,15.022-4.616,15.022-9.72C82.207,57.802,75.598,53.657,67.182,53.187z M65.627,70.628
	c-7.651,0-13.854-3.457-13.854-7.723c0-4.267,6.203-7.724,13.854-7.724s13.854,3.457,13.854,7.724
	C79.48,67.171,73.278,70.628,65.627,70.628z"/>
</svg>
