<?xml version="1.0" encoding="utf-8"?>
<!-- Generator: Adobe Illustrator 15.0.0, SVG Export Plug-In . SVG Version: 6.00 Build 0)  -->
<!DOCTYPE svg PUBLIC "-//W3C//DTD SVG 1.1//EN" "http://www.w3.org/Graphics/SVG/1.1/DTD/svg11.dtd">
<svg version="1.1" id="Layer_1" xmlns="http://www.w3.org/2000/svg" xmlns:xlink="http://www.w3.org/1999/xlink" x="0px" y="0px"
	 width="134px" height="133px" viewBox="0 0 134 133" enable-background="new 0 0 134 133" xml:space="preserve">
<path fill="#0021A5" d="M107.844,106.293c0.131,0.359,0.367,0.64,0.707,0.845c0.34,0.206,0.799,0.308,1.381,0.308
	c0.494,0,0.937-0.073,1.33-0.223c0.394-0.148,0.803-0.365,1.23-0.652c0.428-0.285,0.742-0.545,0.941-0.779
	c0.278-0.338,0.524-0.824,0.736-1.461c0.213-0.637,0.319-1.276,0.319-1.915c0-0.337-0.042-0.647-0.125-0.931
	s-0.212-0.525-0.388-0.729s-0.438-0.368-0.785-0.494c-0.346-0.127-0.729-0.191-1.149-0.191c-0.503,0-0.978,0.098-1.425,0.289
	c-0.447,0.193-0.857,0.438-1.23,0.733c-0.375,0.295-0.635,0.533-0.781,0.714c-0.234,0.288-0.453,0.76-0.656,1.413
	c-0.202,0.655-0.305,1.284-0.305,1.89C107.645,105.539,107.711,105.934,107.844,106.293L107.844,106.293z M109.698,102.822
	c0.218-0.815,0.466-1.368,0.745-1.659c0.279-0.29,0.613-0.437,1.005-0.437c0.381,0,0.69,0.135,0.928,0.4s0.354,0.697,0.354,1.293
	c0,0.703-0.102,1.439-0.307,2.212c-0.143,0.528-0.298,0.942-0.466,1.242c-0.169,0.3-0.354,0.518-0.558,0.651
	c-0.203,0.135-0.444,0.201-0.723,0.201c-0.416,0-0.738-0.129-0.965-0.388s-0.341-0.688-0.341-1.289
	C109.372,104.381,109.48,103.638,109.698,102.822L109.698,102.822z M116.426,101.104c0.346,0,0.666,0.002,0.959,0.006l-1.059,5.476
	c-0.279,1.498-0.504,2.481-0.675,2.95c-0.089,0.234-0.192,0.396-0.312,0.486c-0.119,0.09-0.251,0.135-0.393,0.135
	c-0.146,0-0.279-0.051-0.398-0.152c-0.121-0.102-0.232-0.27-0.335-0.503l-0.233,0.044c-0.055,0.263-0.114,0.507-0.18,0.729
	c-0.066,0.223-0.168,0.515-0.306,0.877c0.201,0.082,0.386,0.123,0.558,0.123c0.229,0,0.469-0.065,0.717-0.197
	c0.475-0.25,0.941-0.641,1.404-1.176c0.461-0.535,0.829-1.151,1.105-1.853c0.275-0.7,0.609-1.839,1-3.416l0.811-3.522
	c0.162-0.004,0.407-0.006,0.735-0.006c0.522,0,0.899,0.002,1.13,0.006c0.049-0.24,0.125-0.492,0.229-0.756l-0.074-0.119
	c-0.156,0.029-0.395,0.055-0.713,0.073c-0.524,0.035-0.853,0.05-0.984,0.044h-0.168c0.111-0.647,0.256-1.297,0.432-1.945
	c0.068-0.243,0.137-0.424,0.202-0.541c0.066-0.116,0.155-0.209,0.269-0.277c0.111-0.068,0.229-0.104,0.352-0.104
	c0.156,0,0.332,0.064,0.528,0.191c0.194,0.127,0.396,0.346,0.601,0.652l0.221-0.043c0.082-0.588,0.219-1.211,0.414-1.87
	c-0.205-0.078-0.406-0.117-0.602-0.117c-0.298,0-0.529,0.035-0.693,0.106c-0.162,0.07-0.505,0.293-1.025,0.67
	c-0.521,0.375-0.993,0.761-1.418,1.156c-0.274,0.258-0.478,0.51-0.608,0.754c-0.083,0.155-0.171,0.443-0.264,0.862
	c-0.039,0.187-0.071,0.315-0.095,0.388c-0.205,0.095-0.469,0.187-0.789,0.277c-0.322,0.092-0.561,0.166-0.717,0.225l-0.065,0.373
	C116.102,101.105,116.249,101.104,116.426,101.104L116.426,101.104L116.426,101.104z"/>
<path fill="#0021A5" d="M14.817,117.597h-1.328c-0.02,0.896-0.075,1.47-0.166,1.722c-0.06,0.191-0.155,0.308-0.286,0.348
	c-0.342,0.121-1.166,0.181-2.472,0.181c-0.452,0-1.321-0.034-2.607-0.106v-2.104c0-2.616,0.057-4.427,0.172-5.43
	c0.282-0.019,0.813-0.041,1.594-0.068c0.781-0.026,1.257-0.041,1.428-0.041c0.887,0,1.66,0.058,2.32,0.173s1.08,0.233,1.262,0.354
	c0.06,0.029,0.105,0.08,0.136,0.15c0.04,0.09,0.07,0.354,0.091,0.795c0.05,0.842,0.075,1.383,0.075,1.623h1.234
	c0.01-0.666,0.056-1.444,0.136-2.332c0.08-0.889,0.176-1.621,0.286-2.195l-0.136-0.213c-0.909-0.101-1.873-0.151-2.892-0.151
	l-7.284,0.142l-5.375-0.11v1.266c0.976,0.062,1.573,0.116,1.791,0.167c0.219,0.051,0.361,0.104,0.428,0.159
	c0.065,0.056,0.114,0.14,0.144,0.25c0.092,0.323,0.147,0.874,0.168,1.651c0.094,2.688,0.141,4.103,0.141,4.244v6.274
	c0,0.536-0.026,1.417-0.078,2.646c-0.053,1.228-0.094,1.957-0.124,2.189c-0.051,0.404-0.123,0.667-0.214,0.788
	c-0.061,0.081-0.137,0.136-0.228,0.167c-0.184,0.07-0.859,0.116-2.028,0.137v1.25c1.861-0.074,3.222-0.109,4.082-0.109l5.949,0.109
	v-1.203c-1.403-0.102-2.195-0.185-2.376-0.25c-0.182-0.065-0.308-0.153-0.379-0.265c-0.101-0.161-0.18-0.724-0.237-1.687
	c-0.058-0.963-0.086-2.639-0.086-5.027v-1.68c0.573-0.01,0.974-0.014,1.206-0.014c1.607,0,2.783,0.065,3.526,0.196
	c0.292,0.06,0.472,0.156,0.543,0.287c0.141,0.262,0.226,1.022,0.256,2.282h1.328C14.817,121.498,14.817,119.311,14.817,117.597
	L14.817,117.597L14.817,117.597z M23.244,131.378c0.655,0,1.815,0.021,3.479,0.063c2.189,0.051,3.374,0.078,3.556,0.078
	c1.291,0,2.244-0.027,2.86-0.078c0.292-0.031,0.585-0.09,0.877-0.172c0.01-0.193,0.056-0.768,0.137-1.726l0.38-3.058
	c0-0.049,0.015-0.217,0.046-0.498h-1.25c-0.192,0.992-0.389,1.875-0.591,2.646c-0.091,0.304-0.177,0.491-0.258,0.562
	c-0.081,0.071-0.328,0.138-0.742,0.199c-1.141,0.176-2.479,0.266-4.015,0.266c-0.505,0-1.454-0.037-2.848-0.11
	c-0.01-0.303-0.018-1.163-0.023-2.58c-0.005-1.418-0.013-2.848-0.023-4.291c-0.011-2.735-0.016-4.192-0.016-4.375
	c0-1.694,0.024-3.098,0.071-4.207c0.046-1.11,0.095-1.733,0.145-1.87c0.051-0.136,0.131-0.234,0.242-0.295
	c0.252-0.131,0.949-0.222,2.089-0.271v-1.329c-1.645,0.073-3.385,0.11-5.221,0.11c-1.645,0-3.107-0.037-4.389-0.11v1.329
	c1.316,0.05,2.091,0.15,2.323,0.303c0.112,0.061,0.188,0.15,0.228,0.271c0.091,0.273,0.154,1.358,0.189,3.256
	c0.017,0.748,0.026,2.717,0.026,5.906c0,2.172-0.021,4.031-0.062,5.58c-0.042,1.551-0.088,2.451-0.138,2.704
	c-0.01,0.06-0.035,0.116-0.076,0.166c-0.06,0.081-0.195,0.183-0.406,0.304c-0.472,0.282-0.838,0.479-1.099,0.59v0.779
	C20.752,131.425,22.255,131.378,23.244,131.378L23.244,131.378L23.244,131.378z M36.3,127.174c0.928,1.605,2.207,2.818,3.836,3.643
	c1.629,0.822,3.579,1.233,5.848,1.233c2.098,0,3.964-0.338,5.599-1.015c1.19-0.504,2.252-1.227,3.185-2.166
	c0.933-0.938,1.641-2.014,2.126-3.225c0.655-1.625,0.983-3.387,0.983-5.285c0-1.121-0.113-2.145-0.34-3.074
	c-0.227-0.928-0.563-1.781-1.007-2.559c-0.443-0.777-1.092-1.537-1.944-2.279c-0.852-0.741-1.833-1.31-2.943-1.703
	c-1.493-0.514-3.157-0.772-4.993-0.772c-1.846,0-3.551,0.269-5.114,0.804c-1.221,0.424-2.351,1.114-3.39,2.073
	s-1.838,2.125-2.398,3.498s-0.84,2.984-0.84,4.831C34.908,123.57,35.372,125.568,36.3,127.174L36.3,127.174z M40.268,115.785
	c0.47-1.354,1.222-2.379,2.256-3.071c1.035-0.692,2.289-1.039,3.763-1.039c1.292,0,2.329,0.218,3.111,0.653
	c0.782,0.434,1.461,1.063,2.036,1.888s1.017,1.823,1.325,2.996c0.308,1.173,0.462,2.467,0.462,3.883
	c0,2.063-0.285,3.817-0.856,5.263c-0.57,1.446-1.357,2.474-2.361,3.08c-1.005,0.606-2.143,0.909-3.414,0.909
	c-1.373,0-2.564-0.317-3.573-0.955c-1.01-0.637-1.837-1.727-2.483-3.269s-0.969-3.491-0.969-5.848
	C39.565,118.637,39.799,117.141,40.268,115.785L40.268,115.785z M60.081,111.9c0.1,0.061,0.175,0.146,0.225,0.256
	c0.1,0.254,0.16,1.011,0.18,2.272l0.078,3.194v5.617l-0.125,4.422c-0.03,0.798-0.08,1.393-0.151,1.787
	c-0.03,0.211-0.073,0.353-0.128,0.424c-0.055,0.07-0.143,0.121-0.264,0.15c-0.211,0.071-0.889,0.127-2.035,0.168v1.328
	c1.341-0.074,2.798-0.109,4.37-0.109c1.765,0,3.509,0.035,5.235,0.109v-1.328c-0.969-0.021-1.554-0.051-1.756-0.092
	c-0.202-0.039-0.348-0.093-0.439-0.158c-0.091-0.065-0.156-0.139-0.197-0.22c-0.08-0.172-0.136-0.539-0.166-1.104
	c-0.021-0.282-0.052-1.461-0.094-3.539c-0.031-1.694-0.047-3.297-0.047-4.811c0-0.958,0.032-2.863,0.094-5.718
	c0.031-1.274,0.063-2.093,0.094-2.457c0.474-0.08,0.954-0.121,1.439-0.121c1.091,0,1.849,0.076,2.273,0.228
	c0.657,0.242,1.208,0.67,1.652,1.287c0.444,0.614,0.667,1.387,0.667,2.315c0,0.918-0.213,1.748-0.637,2.49
	c-0.424,0.741-0.945,1.256-1.562,1.544c-0.617,0.287-1.532,0.411-2.745,0.37l-0.166,0.5c0.302,0.222,0.615,0.555,0.939,0.998
	c0.646,0.877,1.433,2.081,2.362,3.614l3.24,5.338c0.192,0.354,0.313,0.641,0.364,0.863c0.797-0.043,1.599-0.063,2.407-0.063
	c0.695,0,1.82,0.021,3.375,0.063v-1.328c-0.475-0.011-0.793-0.051-0.954-0.121c-0.162-0.069-0.328-0.194-0.5-0.375
	c-0.171-0.181-0.636-0.771-1.394-1.771c-0.05-0.07-0.388-0.57-1.014-1.502l-2.348-3.498c-0.061-0.09-0.118-0.186-0.174-0.285
	s-0.244-0.386-0.567-0.855c-0.323-0.471-0.611-0.932-0.863-1.381c1.577-0.586,2.745-1.379,3.504-2.379
	c0.759-0.998,1.138-2.109,1.138-3.332c0-1.029-0.277-1.902-0.834-2.619c-0.555-0.717-1.226-1.188-2.013-1.416
	c-0.786-0.227-1.973-0.34-3.558-0.34c-0.817,0-1.852,0.028-3.103,0.086c-0.757,0.047-1.666,0.069-2.725,0.069
	c-1.242,0-2.201-0.012-2.877-0.036c-1.382-0.049-2.19-0.072-2.422-0.072v1.233C59.101,111.678,59.841,111.779,60.081,111.9
	L60.081,111.9L60.081,111.9z M84.229,110.441c-1.648,0-3.108-0.037-4.381-0.11v1.329c1.102,0.039,1.741,0.082,1.918,0.129
	c0.178,0.045,0.299,0.103,0.364,0.174c0.066,0.07,0.114,0.171,0.144,0.303c0.072,0.323,0.133,1.126,0.183,2.409
	c0.021,0.576,0.032,1.869,0.032,3.879v6.334c0,1.03-0.042,2.151-0.125,3.363c-0.051,0.829-0.092,1.304-0.122,1.425
	c-0.021,0.091-0.067,0.171-0.144,0.242c-0.076,0.07-0.221,0.126-0.432,0.167c-0.162,0.03-0.768,0.065-1.818,0.106v1.328
	c1.272-0.074,2.723-0.109,4.35-0.109c1.869,0,3.628,0.035,5.275,0.109v-1.328c-0.998-0.021-1.601-0.054-1.81-0.1
	c-0.208-0.045-0.36-0.105-0.457-0.182c-0.097-0.075-0.166-0.184-0.206-0.325c-0.102-0.313-0.152-0.99-0.152-2.031l-0.047-2.772
	v-6.106c0-0.192,0.021-1.53,0.063-4.015c0.01-0.728,0.025-1.223,0.046-1.485c0.03-0.485,0.082-0.813,0.153-0.985
	c0.029-0.101,0.086-0.184,0.168-0.25c0.08-0.065,0.218-0.121,0.412-0.166c0.192-0.045,0.803-0.084,1.83-0.113v-1.329
	C87.825,110.404,86.077,110.441,84.229,110.441L84.229,110.441L84.229,110.441z M95.939,131.41l4.494,0.109
	c2.037,0,3.775-0.226,5.219-0.675c1.441-0.448,2.779-1.185,4.016-2.203c1.235-1.02,2.206-2.286,2.912-3.802
	c0.705-1.516,1.059-3.236,1.059-5.165c0-1.515-0.237-2.907-0.711-4.181c-0.283-0.756-0.699-1.463-1.248-2.119
	c-0.551-0.656-1.224-1.225-2.02-1.704c-0.797-0.479-1.732-0.828-2.807-1.045c-1.074-0.218-2.504-0.326-4.289-0.326
	c-0.776,0-1.811,0.019-3.102,0.054c-1.785,0.059-3,0.088-3.646,0.088l-5.49-0.11v1.219c1.096,0.142,1.729,0.233,1.9,0.272
	c0.17,0.041,0.295,0.102,0.377,0.183c0.05,0.05,0.09,0.121,0.121,0.212c0.1,0.395,0.164,1.303,0.195,2.727
	c0.053,2.574,0.078,4.528,0.078,5.861v2.484c0,3.04-0.059,5.236-0.172,6.589c-0.32,0.233-0.67,0.456-1.049,0.669
	c-0.2,0.111-0.34,0.191-0.42,0.243v0.729L95.939,131.41L95.939,131.41z M97.248,123.705v-3.477c0-3.959,0.053-6.654,0.156-8.084
	c0.939-0.136,1.796-0.203,2.572-0.203c2.069,0,3.613,0.181,4.633,0.545c1.019,0.362,1.861,0.948,2.527,1.756
	c0.666,0.807,1.146,1.748,1.438,2.822c0.293,1.075,0.439,2.188,0.439,3.338c0,1.262-0.146,2.438-0.439,3.527
	c-0.292,1.09-0.703,2.028-1.232,2.814c-0.531,0.787-1.082,1.384-1.658,1.787c-0.576,0.404-1.246,0.711-2.014,0.924
	c-1.039,0.281-2.23,0.423-3.572,0.423c-0.857,0-1.754-0.078-2.693-0.233C97.301,128.688,97.248,126.707,97.248,123.705
	L97.248,123.705L97.248,123.705z M114.421,131.41l3.489,0.109v-1.25c-1.201-0.041-1.922-0.132-2.163-0.272
	c-0.161-0.101-0.241-0.271-0.241-0.513c0-0.342,0.252-1.205,0.754-2.594l0.662-1.81h7.814l1.296,3.317
	c0.231,0.573,0.348,0.985,0.348,1.237c0,0.201-0.077,0.345-0.233,0.429c-0.157,0.086-0.846,0.154-2.066,0.205v1.25l5.311-0.109
	l4.205,0.109v-1.25c-0.293-0.031-0.515-0.056-0.666-0.076c-0.474-0.031-0.769-0.065-0.885-0.106c-0.115-0.04-0.22-0.101-0.31-0.181
	c-0.091-0.082-0.187-0.213-0.288-0.395l-0.605-1.393l-0.938-2.074l-6.762-15.807h-2.156l-1.332,3.437l-3.948,9.75
	c-0.747,1.849-1.251,3.084-1.513,3.71c-0.575,1.332-0.922,2.102-1.037,2.309c-0.116,0.207-0.23,0.358-0.34,0.455
	c-0.111,0.096-0.245,0.166-0.401,0.211c-0.155,0.045-0.644,0.099-1.46,0.16v1.25L114.421,131.41L114.421,131.41z M120.74,115.497
	l3.242,7.834c-0.922,0.032-1.963,0.047-3.125,0.047c-1.204,0-2.281-0.015-3.231-0.047L120.74,115.497L120.74,115.497z"/>
<path fill="#0021A5" d="M1.834,98.107c0.085,0.063,0.139,0.117,0.16,0.164c0.038,0.086,0.064,0.221,0.077,0.406
	c0.021,0.475,0.031,1.008,0.031,1.6v1.613l-0.006,1.219c0,0.67,0.01,1.08,0.032,1.232c0.029,0.246,0.112,0.501,0.247,0.766
	c0.136,0.265,0.332,0.504,0.591,0.717c0.258,0.214,0.59,0.385,0.997,0.512c0.559,0.173,1.16,0.26,1.803,0.26
	c0.551,0,1.035-0.059,1.454-0.178c0.42-0.118,0.781-0.294,1.086-0.527c0.305-0.232,0.541-0.492,0.708-0.781
	c0.167-0.287,0.279-0.635,0.334-1.041c0.055-0.405,0.082-0.799,0.082-1.181v-1.491c0-0.44,0.015-1.041,0.043-1.804
	c0.029-0.762,0.059-1.19,0.091-1.286c0.032-0.095,0.073-0.16,0.124-0.193c0.101-0.063,0.349-0.096,0.742-0.096v-0.523l-1.409,0.041
	c-0.076,0.004-0.133,0.006-0.171,0.006c-0.144,0-0.599-0.016-1.365-0.047v0.523c0.469,0.014,0.774,0.055,0.914,0.127
	c0.067,0.034,0.116,0.086,0.146,0.152c0.046,0.109,0.076,0.432,0.088,0.966c0.006,0.246,0.008,0.927,0.008,2.045v1.296
	c0,0.902-0.074,1.514-0.222,1.836c-0.148,0.321-0.397,0.584-0.746,0.784c-0.349,0.201-0.818,0.302-1.407,0.302
	c-0.512,0-0.934-0.074-1.266-0.226c-0.333-0.149-0.579-0.347-0.74-0.59c-0.161-0.244-0.26-0.565-0.298-0.963
	c-0.017-0.183-0.026-0.66-0.026-1.435l-0.006-0.744v-1.474c0-0.894,0.029-1.471,0.086-1.733c0.021-0.11,0.064-0.185,0.128-0.223
	c0.123-0.081,0.414-0.121,0.872-0.121v-0.523l-0.235,0.008l-0.858,0.023l-0.857,0.016l-2.065-0.047v0.523L1.834,98.107L1.834,98.107
	z M13.12,106.377c0.705-0.031,1.265-0.047,1.677-0.047c0.111,0,0.568,0.008,1.372,0.023v-0.516
	c-0.059,0.004-0.101,0.007-0.126,0.007c-0.127,0-0.329-0.017-0.604-0.051c-0.101-0.013-0.172-0.035-0.212-0.067
	c-0.04-0.031-0.069-0.072-0.086-0.123c-0.034-0.105-0.059-0.404-0.076-0.896c-0.031-0.711-0.047-1.396-0.047-2.052v-3.162
	c2.508,3.061,4.445,5.354,5.812,6.883c0.369,0.051,0.733,0.105,1.09,0.164l0.082-0.057c-0.057-0.602-0.085-2.31-0.085-5.125
	c0-0.359,0.009-0.918,0.027-1.674c0.018-0.755,0.059-1.238,0.122-1.451c0.013-0.041,0.036-0.074,0.07-0.095
	c0.098-0.063,0.405-0.102,0.921-0.114v-0.531c-0.66,0.031-1.199,0.047-1.618,0.047c-0.432,0-0.906-0.016-1.422-0.047v0.531
	c0.563,0.008,0.893,0.051,0.99,0.127c0.06,0.047,0.098,0.148,0.115,0.306c0.05,0.401,0.076,1.741,0.076,4.021v1.467
	c-0.588-0.604-1.328-1.442-2.221-2.515c-1.239-1.485-2.294-2.798-3.165-3.937l-0.585,0.023l-0.92,0.023
	c-0.254,0-0.65-0.016-1.187-0.047v0.531c0.447,0.029,0.718,0.058,0.811,0.082c0.093,0.026,0.159,0.062,0.199,0.105
	c0.04,0.045,0.071,0.113,0.092,0.207c0.021,0.093,0.034,0.294,0.038,0.604l0.032,1.848v2.039c0,0.563-0.009,1.021-0.026,1.371
	c-0.035,0.619-0.066,1.009-0.092,1.17c-0.021,0.117-0.047,0.197-0.079,0.234c-0.032,0.038-0.071,0.066-0.118,0.082
	c-0.072,0.022-0.358,0.045-0.857,0.07V106.377L13.12,106.377z M27.752,97.541c-0.69,0-1.302-0.016-1.835-0.047v0.563
	c0.459,0.018,0.725,0.035,0.799,0.055c0.073,0.019,0.124,0.043,0.151,0.072s0.047,0.072,0.06,0.127
	c0.029,0.135,0.055,0.471,0.076,1.008c0.01,0.241,0.015,0.783,0.015,1.625v2.651c0,0.431-0.018,0.899-0.054,1.408
	c-0.021,0.347-0.038,0.545-0.051,0.596c-0.008,0.038-0.028,0.072-0.06,0.103c-0.031,0.029-0.091,0.053-0.179,0.068
	c-0.068,0.014-0.32,0.028-0.757,0.045v0.563c0.533-0.031,1.141-0.047,1.822-0.047c0.783,0,1.519,0.016,2.209,0.047v-0.563
	c-0.418-0.009-0.671-0.021-0.759-0.041c-0.087-0.02-0.151-0.045-0.192-0.076c-0.04-0.031-0.069-0.078-0.086-0.137
	c-0.043-0.131-0.064-0.414-0.064-0.85l-0.016-1.161v-2.556c0-0.08,0.009-0.641,0.027-1.682c0.004-0.304,0.011-0.512,0.02-0.621
	c0.013-0.203,0.034-0.341,0.064-0.412c0.012-0.043,0.036-0.078,0.07-0.105c0.034-0.027,0.091-0.05,0.172-0.068
	c0.08-0.02,0.335-0.035,0.764-0.049v-0.563C29.258,97.525,28.526,97.541,27.752,97.541L27.752,97.541L27.752,97.541z M37.89,106.424
	c0.257-0.723,0.75-1.956,1.478-3.697l0.856-2.044l0.451-1.053c0.363-0.871,0.602-1.351,0.716-1.44
	c0.068-0.051,0.307-0.095,0.717-0.133v-0.563l-1.37,0.047l-1.612-0.047v0.563c0.19,0.004,0.423,0.02,0.698,0.044
	c0.123,0.009,0.199,0.019,0.229,0.032c0.038,0.018,0.068,0.043,0.092,0.079c0.023,0.036,0.035,0.09,0.035,0.162
	c0,0.051-0.005,0.102-0.013,0.151c-0.043,0.174-0.159,0.515-0.349,1.021c-0.267,0.72-0.418,1.12-0.451,1.201l-1.411,3.492
	l-1.606-3.918c-0.017-0.047-0.031-0.086-0.041-0.117c-0.011-0.032-0.097-0.243-0.257-0.633c-0.28-0.676-0.419-1.078-0.419-1.205
	c0-0.063,0.018-0.114,0.054-0.155c0.036-0.04,0.1-0.07,0.193-0.093c0.161-0.037,0.419-0.059,0.775-0.063v-0.563l-2.279,0.047
	c-0.22,0-0.838-0.016-1.854-0.047v0.563c0.398,0.01,0.66,0.047,0.787,0.114c0.085,0.047,0.209,0.231,0.372,0.555
	c0.162,0.324,0.597,1.329,1.304,3.017l0.901,2.15c0.33,0.799,0.675,1.643,1.035,2.531H37.89L37.89,106.424z M47.073,106.322
	c0.38,0,1.074,0.008,2.08,0.023l1.021,0.023c0.499,0,0.884-0.016,1.155-0.047l0.081-0.082c0-0.541,0.046-1.229,0.138-2.066h-0.524
	c-0.084,0.566-0.164,0.95-0.24,1.152c-0.025,0.06-0.053,0.098-0.082,0.115c-0.089,0.055-0.326,0.097-0.711,0.125
	c-0.386,0.03-0.806,0.045-1.261,0.045c-0.468,0-0.872-0.016-1.214-0.047c-0.01-0.213-0.015-0.468-0.015-0.765v-2.657
	c0.268-0.031,0.609-0.047,1.022-0.047c0.46,0,0.837,0.023,1.131,0.07c0.132,0.021,0.223,0.072,0.274,0.158
	c0.068,0.113,0.1,0.414,0.096,0.904h0.516l-0.031-1.388l0.031-1.394h-0.516c-0.008,0.377-0.038,0.645-0.088,0.806
	c-0.021,0.063-0.052,0.106-0.092,0.133c-0.04,0.024-0.173,0.04-0.4,0.044c-0.602,0.018-0.951,0.025-1.047,0.025
	c-0.312,0-0.61-0.01-0.896-0.031v-1.309c0-0.74,0.028-1.352,0.086-1.832c0.392-0.031,0.775-0.047,1.15-0.047
	c0.401,0,0.81,0.023,1.227,0.069c0.282,0.03,0.451,0.063,0.506,0.103c0.033,0.024,0.059,0.067,0.075,0.127
	c0.03,0.113,0.049,0.421,0.057,0.92h0.493c0.038-0.547,0.059-0.852,0.063-0.915l0.122-0.916l-0.045-0.083
	c-0.097-0.027-0.167-0.041-0.209-0.041c-0.465-0.018-0.774-0.025-0.926-0.025l-1.287,0.032c-0.71,0.013-1.355,0.019-1.934,0.019
	c-0.266,0-0.545,0.002-0.837,0.002l-1.471,0.014v0.492c0.497,0.025,0.802,0.063,0.917,0.115c0.042,0.021,0.074,0.053,0.096,0.094
	c0.046,0.106,0.076,0.397,0.089,0.875c0.01,0.716,0.015,1.127,0.015,1.238v2.854c0,0.33-0.017,0.858-0.052,1.586
	c-0.017,0.397-0.039,0.685-0.065,0.862c-0.159,0.127-0.365,0.25-0.617,0.369v0.342C46.265,106.338,46.971,106.322,47.073,106.322
	L47.073,106.322L47.073,106.322z M55.42,98.145c0.041,0.025,0.073,0.062,0.094,0.108c0.042,0.106,0.067,0.423,0.076,0.952
	l0.031,1.34v2.355l-0.055,1.854c-0.013,0.335-0.034,0.585-0.063,0.75c-0.013,0.089-0.03,0.148-0.054,0.177
	c-0.023,0.03-0.06,0.052-0.11,0.063c-0.088,0.031-0.372,0.054-0.851,0.07v0.563c0.562-0.031,1.172-0.047,1.831-0.047
	c0.74,0,1.471,0.016,2.195,0.047v-0.563c-0.406-0.009-0.652-0.021-0.736-0.037c-0.085-0.018-0.146-0.039-0.185-0.067
	c-0.038-0.028-0.065-0.058-0.082-0.093c-0.034-0.071-0.057-0.227-0.07-0.463c-0.008-0.119-0.02-0.614-0.036-1.487
	c-0.013-0.712-0.019-1.386-0.019-2.021c0-0.402,0.013-1.203,0.039-2.402c0.013-0.532,0.026-0.875,0.04-1.027
	c0.198-0.034,0.399-0.051,0.602-0.051c0.456,0,0.773,0.031,0.951,0.096c0.275,0.102,0.505,0.282,0.691,0.541
	c0.186,0.258,0.279,0.583,0.279,0.973c0,0.387-0.089,0.735-0.267,1.047c-0.178,0.312-0.396,0.528-0.654,0.648
	c-0.258,0.121-0.642,0.174-1.15,0.156l-0.07,0.21c0.127,0.093,0.259,0.233,0.394,0.419c0.271,0.368,0.601,0.874,0.991,1.518
	l1.359,2.241c0.08,0.149,0.131,0.269,0.152,0.362c0.334-0.016,0.671-0.023,1.009-0.023c0.292,0,0.764,0.008,1.416,0.023v-0.563
	c-0.199-0.004-0.333-0.021-0.4-0.051c-0.068-0.029-0.138-0.081-0.21-0.156c-0.072-0.076-0.267-0.324-0.584-0.744
	c-0.021-0.028-0.163-0.238-0.425-0.629l-0.985-1.468c-0.025-0.038-0.049-0.077-0.073-0.12c-0.023-0.041-0.102-0.16-0.238-0.357
	c-0.135-0.198-0.256-0.391-0.362-0.58c0.66-0.245,1.148-0.578,1.465-0.997c0.317-0.419,0.476-0.886,0.476-1.397
	c0-0.432-0.117-0.799-0.349-1.099c-0.233-0.301-0.514-0.499-0.844-0.594c-0.329-0.095-0.826-0.144-1.49-0.144
	c-0.342,0-0.776,0.012-1.3,0.035c-0.317,0.018-0.698,0.027-1.141,0.027c-0.52,0-0.922-0.006-1.205-0.016
	c-0.58-0.021-0.918-0.031-1.015-0.031v0.523C55.008,98.052,55.319,98.094,55.42,98.145L55.42,98.145L55.42,98.145z M71.811,98.773
	c0.026-0.264,0.069-0.533,0.127-0.808l-0.051-0.151c-0.309-0.151-0.674-0.268-1.095-0.349c-0.422-0.08-0.856-0.12-1.305-0.12
	c-0.433,0-0.854,0.049-1.265,0.143c-0.411,0.096-0.778,0.254-1.104,0.474c-0.326,0.219-0.589,0.528-0.788,0.929
	c-0.199,0.4-0.298,0.838-0.298,1.311c0,0.339,0.055,0.654,0.165,0.949c0.11,0.293,0.276,0.545,0.499,0.752
	c0.222,0.207,0.515,0.365,0.879,0.476c0.242,0.071,0.746,0.188,1.512,0.349c0.533,0.123,0.906,0.241,1.118,0.356
	c0.211,0.114,0.367,0.266,0.467,0.457c0.1,0.19,0.149,0.419,0.149,0.687c0,0.317-0.071,0.6-0.214,0.85
	c-0.141,0.25-0.37,0.447-0.686,0.589c-0.316,0.141-0.674,0.212-1.076,0.212c-0.461,0-0.888-0.1-1.277-0.299
	c-0.389-0.199-0.665-0.432-0.826-0.694c-0.055-0.454-0.078-0.834-0.07-1.14h-0.531c-0.004,0.986-0.072,1.722-0.203,2.203
	c0.487,0.237,0.933,0.406,1.339,0.502c0.406,0.098,0.869,0.146,1.39,0.146c0.71,0,1.32-0.102,1.827-0.305
	c0.318-0.126,0.626-0.318,0.927-0.574c0.3-0.256,0.535-0.538,0.704-0.848c0.225-0.409,0.337-0.885,0.337-1.428
	c0-0.308-0.041-0.586-0.12-0.834c-0.08-0.246-0.184-0.453-0.309-0.615c-0.124-0.162-0.293-0.307-0.504-0.432
	s-0.488-0.232-0.831-0.32c-0.131-0.029-0.415-0.082-0.853-0.158c-0.438-0.076-0.779-0.141-1.024-0.191
	c-0.322-0.084-0.565-0.178-0.729-0.279c-0.166-0.102-0.292-0.238-0.382-0.412c-0.088-0.174-0.135-0.4-0.139-0.68
	c0-0.39,0.158-0.729,0.473-1.02c0.316-0.29,0.763-0.436,1.339-0.436c0.402,0,0.766,0.072,1.09,0.215
	c0.324,0.145,0.551,0.31,0.684,0.496c0.033,0.203,0.055,0.549,0.063,1.039h0.532C71.764,99.384,71.783,99.037,71.811,98.773
	L71.811,98.773z M77.448,97.541c-0.69,0-1.302-0.016-1.835-0.047v0.563c0.459,0.018,0.725,0.035,0.799,0.055
	c0.073,0.019,0.124,0.043,0.15,0.072c0.027,0.029,0.048,0.072,0.061,0.127c0.029,0.135,0.055,0.471,0.076,1.008
	c0.01,0.241,0.015,0.783,0.015,1.625v2.651c0,0.431-0.018,0.899-0.054,1.408c-0.021,0.347-0.038,0.545-0.051,0.596
	c-0.008,0.038-0.028,0.072-0.061,0.103c-0.031,0.029-0.091,0.053-0.179,0.068c-0.067,0.014-0.319,0.028-0.757,0.045v0.563
	c0.533-0.031,1.14-0.047,1.822-0.047c0.783,0,1.519,0.016,2.209,0.047v-0.563c-0.418-0.009-0.672-0.021-0.76-0.041
	c-0.086-0.02-0.15-0.045-0.191-0.076s-0.069-0.078-0.086-0.137c-0.043-0.131-0.064-0.414-0.064-0.85l-0.016-1.161v-2.556
	c0-0.08,0.009-0.641,0.027-1.682c0.004-0.304,0.01-0.512,0.02-0.621c0.012-0.203,0.033-0.341,0.063-0.412
	c0.014-0.043,0.037-0.078,0.071-0.105c0.033-0.027,0.091-0.05,0.172-0.068c0.08-0.02,0.335-0.035,0.765-0.049v-0.563
	C78.954,97.525,78.223,97.541,77.448,97.541L77.448,97.541L77.448,97.541z M86.266,106.322c0.563,0,1.256,0.019,2.078,0.055v-0.523
	c-0.51-0.017-0.813-0.052-0.91-0.104c-0.099-0.054-0.162-0.134-0.191-0.244c-0.047-0.187-0.071-0.735-0.071-1.649v-3.802
	c0-1.011,0.007-1.591,0.019-1.739h0.91c0.486,0,0.903,0.018,1.25,0.051c0.11,0.009,0.179,0.023,0.203,0.045
	c0.03,0.029,0.058,0.119,0.084,0.272c0.045,0.3,0.073,0.615,0.082,0.944h0.523c0.012-0.893,0.021-1.355,0.025-1.391
	c0.008-0.193,0.031-0.42,0.067-0.679l-0.063-0.063c-0.198,0.021-0.395,0.035-0.59,0.043c-0.358,0.014-1.07,0.02-2.136,0.02h-2.562
	c-1.035,0-1.735-0.006-2.098-0.02c-0.225-0.008-0.436-0.022-0.635-0.043l-0.057,0.063c0.029,0.216,0.05,0.417,0.063,0.603
	c0.004,0.111,0.014,0.6,0.031,1.467h0.523c0.008-0.367,0.039-0.699,0.095-0.995c0.022-0.123,0.047-0.197,0.077-0.222
	c0.021-0.021,0.101-0.038,0.24-0.051c0.349-0.029,0.752-0.045,1.209-0.045h0.91c0.01,0.123,0.016,0.702,0.016,1.739v3.802
	c0,0.914-0.024,1.461-0.07,1.644c-0.034,0.118-0.1,0.202-0.193,0.253c-0.097,0.051-0.399,0.085-0.908,0.102v0.523
	C84.971,106.341,85.663,106.322,86.266,106.322L86.266,106.322L86.266,106.322z M96.66,99.939c-0.305-0.596-0.611-1.121-0.919-1.578
	c-0.208-0.31-0.371-0.52-0.489-0.631c-0.117-0.113-0.307-0.24-0.564-0.385c-0.241,0.064-0.476,0.121-0.705,0.171l-1.344,0.267v0.477
	c0.317,0,0.504,0.014,0.559,0.038c0.089,0.047,0.238,0.185,0.451,0.412c0.316,0.347,0.66,0.808,1.027,1.383
	c0.453,0.706,0.879,1.423,1.276,2.149c0.161,0.306,0.241,0.507,0.241,0.604v1.205c0,0.339-0.01,0.749-0.031,1.23
	c-0.014,0.211-0.035,0.338-0.066,0.382c-0.031,0.042-0.09,0.073-0.172,0.095s-0.365,0.04-0.848,0.057v0.563
	c0.65-0.031,1.294-0.047,1.929-0.047c0.651,0,1.38,0.016,2.188,0.047v-0.563c-0.471-0.009-0.752-0.025-0.84-0.051
	c-0.09-0.025-0.153-0.063-0.192-0.113c-0.038-0.052-0.071-0.199-0.099-0.444s-0.041-0.638-0.041-1.175v-1.071
	c0-0.22,0.011-0.378,0.031-0.476c0.029-0.136,0.092-0.295,0.185-0.477c0.14-0.266,0.507-0.865,1.101-1.796
	c0.594-0.933,1.147-1.742,1.66-2.433v-0.285h-1.003c-0.06,0.123-0.205,0.387-0.438,0.793c-0.666,1.183-1.067,1.891-1.203,2.123
	l-0.799,1.293C97.453,101.484,97.155,100.896,96.66,99.939L96.66,99.939L96.66,99.939z"/>
<g>
	<polygon fill="#0021A5" points="95.329,74.697 95.329,51.908 116.327,51.909 116.327,36.883 95.329,36.883 95.329,15.596 
		118.386,15.596 118.386,23.855 133.593,23.855 133.593,0.696 72.701,0.696 72.701,15.596 78.403,15.596 78.403,74.697 
		72.721,74.697 72.721,89.722 100.827,89.722 100.827,74.697 95.329,74.697 	"/>
	<path fill="#0021A5" d="M65.586,56.077V15.592h5.627V0.696H43.047v14.896h5.492v35.45c0,14.858-1.717,21.999-12.387,21.999
		S23.765,65.9,23.765,51.042v-35.45h5.45V0.696H1.007v14.896h5.587v40.485c0,8.841,0,16.085,4.17,22.594
		c4.661,7.368,13.123,12.052,25.388,12.052C57.86,90.723,65.586,79.408,65.586,56.077L65.586,56.077z"/>
</g>
</svg>
