<?xml version="1.0" encoding="UTF-8" standalone="no"?>
<svg
   xmlns:dc="http://purl.org/dc/elements/1.1/"
   xmlns:cc="http://creativecommons.org/ns#"
   xmlns:rdf="http://www.w3.org/1999/02/22-rdf-syntax-ns#"
   xmlns:svg="http://www.w3.org/2000/svg"
   xmlns="http://www.w3.org/2000/svg"
   xmlns:sodipodi="http://sodipodi.sourceforge.net/DTD/sodipodi-0.dtd"
   xmlns:inkscape="http://www.inkscape.org/namespaces/inkscape"
   version="1.1"
   id="Layer_1"
   x="0px"
   y="0px"
   width="425"
   height="508"
   viewBox="0 0 425 508"
   enable-background="new 0 0 595 842"
   xml:space="preserve">
<rect
   style="fill:#d31145"
   x="4.0402403e-005"
   y="83.017136"
   width="425"
   height="424.98282"
   id="rect4575" /><path
   style="fill:#ffffff"
   inkscape:connector-curvature="0"
   d="m 36.341814,389.06029 c 0,10.01759 0.876324,19.79461 2.457144,29.36545 14.021186,-83.28516 86.429612,-146.81007 173.735552,-146.81007 87.27157,0 159.71437,63.52491 173.70119,146.81007 1.61519,-9.57084 2.45714,-19.34786 2.45714,-29.36545 0,-97.32353 -78.86917,-176.17552 -176.15833,-176.17552 -97.32352,0 -176.192696,78.85199 -176.192696,176.17552"
   id="path4577" /><path
   style="fill:#ffffff"
   inkscape:connector-curvature="0"
   d="m 239.52873,130.56185 c -8.62578,-4.98301 -17.56085,-9.12408 -26.59901,-12.52628 65.03699,53.86816 83.64599,148.32216 39.88134,223.80631 -43.74748,75.51852 -134.9711,106.31015 -214.046468,76.66977 7.422981,6.15145 15.481727,11.82179 24.141871,16.82199 84.161477,48.79923 191.914987,20.12109 240.714207,-64.02321 48.79923,-84.1443 20.10391,-191.94935 -64.09194,-240.74858"
   id="path4579" /><path
   style="fill:#ffffff"
   inkscape:connector-curvature="0"
   d="m 185.50593,130.56185 c 8.66014,-4.98301 17.56084,-9.12408 26.65056,-12.52628 -65.05418,53.86816 -83.69755,148.32216 -39.89852,223.80631 43.74747,75.51852 134.98828,106.31015 214.04646,76.66977 -7.47453,6.15145 -15.48173,11.82179 -24.17624,16.82199 -84.12711,48.79923 -191.91498,20.12109 -240.67984,-64.02321 -48.782042,-84.1443 -20.10391,-191.94935 64.05758,-240.74858"
   id="path4581" /><rect
   style="fill:#0057a5"
   x="4.0402403e-005"
   y="0.0064869695"
   width="425"
   height="83.010231"
   id="rect4583" /><path
   style="fill:#ffffff"
   inkscape:connector-curvature="0"
   d="M 15.997348,14.904253 H 34.00495 c 10.911094,0 15.653554,6.907496 15.653554,13.471336 0,4.74246 -2.49151,8.57423 -7.165238,10.82518 5.928075,2.732069 8.969435,7.182421 8.969435,13.247959 0,8.505499 -6.32328,15.670737 -17.303106,15.670737 H 15.997348 V 14.904253 m 14.65695,21.495715 c 4.587815,0 6.924679,-2.096304 6.924679,-6.460742 0,-4.278524 -2.165036,-6.392012 -6.924679,-6.392012 h -2.577423 v 12.852754 h 2.577423 z m 1.323078,23.076536 c 5.223579,0 7.405798,-2.663338 7.405798,-7.182422 0,-3.728673 -1.804197,-7.233969 -6.632571,-7.233969 h -4.673728 v 14.416391 h 3.900501 z"
   id="path4585" /><path
   style="fill:#ffffff"
   inkscape:connector-curvature="0"
   d="m 85.037943,14.199757 c 9.897308,0 20.963047,7.405798 20.963047,27.355059 0,20.79122 -11.924881,27.269145 -20.963047,27.269145 -10.27533,0 -20.963048,-7.869734 -20.963048,-27.818995 0,-18.076333 10.601804,-26.805209 20.963048,-26.805209 m 0,44.177046 c 5.618784,0 8.642961,-4.106696 8.642961,-16.890718 0,-9.192812 -1.477723,-16.83917 -8.642961,-16.83917 -6.546657,0 -8.642962,6.392012 -8.642962,16.83917 0,10.584621 2.010391,16.890718 8.642962,16.890718 z"
   id="path4587" /><path
   style="fill:#ffffff"
   inkscape:connector-curvature="0"
   d="m 120.57203,14.904253 h 17.37183 c 10.9111,0 17.14846,6.134269 17.14846,14.880327 0,5.996807 -2.64615,9.794211 -8.96943,12.457549 4.75964,2.663338 6.63257,14.571037 11.15165,25.877336 H 144.7139 l -2.86953,-9.983222 C 138.49371,46.606567 137.7033,45.678694 132.65155,45.678694 V 68.119465 H 120.57203 V 14.904253 m 15.89411,21.581629 c 4.05515,0 6.54666,-2.182218 6.54666,-6.392011 0,-4.209792 -2.26814,-5.996806 -6.7013,-5.996806 h -3.65995 v 12.388817 h 3.81459 z"
   id="path4589" /><path
   style="fill:#ffffff"
   inkscape:connector-curvature="0"
   d="m 169.97265,14.904253 h 15.73947 c 16.66734,0 22.97344,13.247959 22.97344,26.152261 0,12.234172 -5.91089,27.045768 -22.35486,27.045768 H 169.97265 V 14.904253 m 14.94906,44.245777 c 8.72888,0 11.46095,-6.787216 11.46095,-17.457751 0,-10.051953 -2.49151,-17.852956 -10.82519,-17.852956 H 182.035 V 59.15003 h 2.88671 z"
   id="path4591" /><polyline
   style="fill:#ffffff"
   points="258.79,460.408 260.595,460.408 260.595,460.943 259.493,460.943 259.493,461.664 260.518,461.664   260.518,462.199 259.493,462.199 259.493,462.97 260.636,462.97 260.636,463.505 258.79,463.505 258.79,460.408 "
   id="polyline4593"
   transform="matrix(17.182826,0,0,17.182826,-4223.3323,-7896.2063)" /><path
   style="fill:#ffffff"
   inkscape:connector-curvature="0"
   d="m 278.82585,14.577779 h 12.54347 l 13.93527,53.541686 h -11.68432 l -2.49151,-11.06574 h -11.99361 l -2.57743,11.06574 H 264.8734 l 13.95245,-53.541686 m 10.51589,33.832985 -4.12387,-19.33068 h -0.17183 l -4.20979,19.33068 h 8.50549 z"
   id="path4595" /><path
   style="fill:#ffffff"
   inkscape:connector-curvature="0"
   d="m 328.75915,14.904253 v 36.616602 c 0,4.209793 2.26813,7.251153 6.54665,7.251153 4.67373,0 6.54666,-3.04136 6.54666,-7.869735 v -35.99802 h 12.07953 v 34.984234 c 0,11.684321 -5.99681,18.935474 -18.62619,18.935474 -11.06574,0 -18.62618,-5.53287 -18.62618,-18.780829 V 14.904253 h 12.07953"
   id="path4597" /><polyline
   style="fill:#ffffff"
   points="268.005,461.863 267.189,460.408 267.959,460.408 268.399,461.26 268.844,460.408 269.61,460.408   268.794,461.863 269.701,463.505 268.934,463.505 268.399,462.489 267.864,463.505 267.098,463.505 268.005,461.863 "
   id="polyline4599"
   transform="matrix(17.182826,0,0,17.182826,-4223.3323,-7896.2063)" />
</svg>