<?xml version="1.0" encoding="UTF-8" standalone="no"?>
<!-- Created with Inkscape (http://www.inkscape.org/) -->
<svg
   xmlns:dc="http://purl.org/dc/elements/1.1/"
   xmlns:cc="http://creativecommons.org/ns#"
   xmlns:rdf="http://www.w3.org/1999/02/22-rdf-syntax-ns#"
   xmlns:svg="http://www.w3.org/2000/svg"
   xmlns="http://www.w3.org/2000/svg"
   xmlns:xlink="http://www.w3.org/1999/xlink"
   xmlns:sodipodi="http://sodipodi.sourceforge.net/DTD/sodipodi-0.dtd"
   xmlns:inkscape="http://www.inkscape.org/namespaces/inkscape"
   id="svg2443"
   sodipodi:version="0.32"
   inkscape:version="0.46"
   width="86.040001"
   height="87.040001"
   xml:space="preserve"
   sodipodi:docname="CNRS_fr_quadri.svg"
   version="1.0"
   inkscape:output_extension="org.inkscape.output.svg.inkscape"><metadata
     id="metadata2448"><rdf:RDF><cc:Work
         rdf:about=""><dc:format>image/svg+xml</dc:format><dc:type
           rdf:resource="http://purl.org/dc/dcmitype/StillImage" /></cc:Work></rdf:RDF></metadata><defs
     id="defs2446"><inkscape:perspective
       sodipodi:type="inkscape:persp3d"
       inkscape:vp_x="0 : 526.18109 : 1"
       inkscape:vp_y="0 : 1000 : 0"
       inkscape:vp_z="744.09448 : 526.18109 : 1"
       inkscape:persp3d-origin="372.04724 : 350.78739 : 1"
       id="perspective2450" /><clipPath
       clipPathUnits="userSpaceOnUse"
       id="clipPath2458"><path
         d="M 0,0.89 L 595,0.89 L 595,841.89 L 0,841.89 L 0,0.89 z"
         id="path2460" /></clipPath><clipPath
       clipPathUnits="userSpaceOnUse"
       id="clipPath2630"><path
         d="M 113.386,491.4611 L 181.417,491.4611 L 181.417,559.4921 L 113.386,559.4921 L 113.386,491.4611 z"
         id="path2632" /></clipPath><radialGradient
       fx="0"
       fy="0"
       cx="0"
       cy="0"
       r="1"
       gradientUnits="userSpaceOnUse"
       gradientTransform="matrix(42.9428,0,0,-42.9428,155.14,533.4193)"
       spreadMethod="pad"
       id="radialGradient2644"><stop
         style="stop-opacity:1;stop-color:#486492"
         offset="0"
         id="stop2646" /><stop
         style="stop-opacity:1;stop-color:#132746"
         offset="1"
         id="stop2648" /></radialGradient><clipPath
       clipPathUnits="userSpaceOnUse"
       id="clipPath2708"><path
         d="M 129.923,260.574 L 158.269,260.574 L 158.269,288.92 L 129.923,288.92 L 129.923,260.574 z"
         id="path2710" /></clipPath><radialGradient
       fx="0"
       fy="0"
       cx="0"
       cy="0"
       r="1"
       gradientUnits="userSpaceOnUse"
       gradientTransform="matrix(17.89641,0,0,-17.89658,147.324,278.059)"
       spreadMethod="pad"
       id="radialGradient2722"><stop
         style="stop-opacity:1;stop-color:#486492"
         offset="0"
         id="stop2724" /><stop
         style="stop-opacity:1;stop-color:#132746"
         offset="1"
         id="stop2726" /></radialGradient><clipPath
       clipPathUnits="userSpaceOnUse"
       id="clipPath2758"><path
         d="M 113.386,408.189 L 181.417,408.189 L 181.417,476.221 L 113.386,476.221 L 113.386,408.189 z"
         id="path2760" /></clipPath><radialGradient
       fx="0"
       fy="0"
       cx="0"
       cy="0"
       r="1"
       gradientUnits="userSpaceOnUse"
       gradientTransform="matrix(42.9428,0,0,-42.9428,155.1404,450.1476)"
       spreadMethod="pad"
       id="radialGradient2772"><stop
         style="stop-opacity:1;stop-color:#486492"
         offset="0"
         id="stop2774" /><stop
         style="stop-opacity:1;stop-color:#132746"
         offset="1"
         id="stop2776" /></radialGradient><clipPath
       clipPathUnits="userSpaceOnUse"
       id="clipPath2872"><path
         d="M 132.885,229.393 L 155.562,229.393 L 155.562,252.07 L 132.885,252.07 L 132.885,229.393 z"
         id="path2874" /></clipPath><clipPath
       clipPathUnits="userSpaceOnUse"
       id="clipPath2910"><path
         d="M 119.881,342.992 L 170.904,342.992 L 170.904,394.016 L 119.881,394.016 L 119.881,342.992 z"
         id="path2912" /></clipPath><radialGradient
       fx="0"
       fy="0"
       cx="0"
       cy="0"
       r="1"
       gradientUnits="userSpaceOnUse"
       gradientTransform="matrix(32.2071,0,0,-32.20741,151.1965,374.4604)"
       spreadMethod="pad"
       id="radialGradient2924"><stop
         style="stop-opacity:1;stop-color:#486492"
         offset="0"
         id="stop2926" /><stop
         style="stop-opacity:1;stop-color:#132746"
         offset="1"
         id="stop2928" /></radialGradient><clipPath
       clipPathUnits="userSpaceOnUse"
       id="clipPath2958"><path
         d="M 100.898,202.5051 L 191.338,202.5051 L 191.338,211.0051 L 100.898,211.0051 L 100.898,202.5051 z"
         id="path2960" /></clipPath><clipPath
       clipPathUnits="userSpaceOnUse"
       id="clipPath2966"><path
         d="M 100.898,201.084 L 188.6417,201.084 L 188.6417,211.0049 L 100.898,211.0049 L 100.898,201.084 z"
         id="path2968" /></clipPath><radialGradient
       inkscape:collect="always"
       xlink:href="#radialGradient2644"
       id="radialGradient3129"
       gradientUnits="userSpaceOnUse"
       gradientTransform="matrix(42.9428,0,0,-42.9428,155.14,533.4193)"
       spreadMethod="pad"
       cx="0"
       cy="0"
       fx="0"
       fy="0"
       r="1" /><radialGradient
       inkscape:collect="always"
       xlink:href="#radialGradient2644"
       id="radialGradient3162"
       gradientUnits="userSpaceOnUse"
       gradientTransform="matrix(42.9428,0,0,-42.9428,155.14,533.4193)"
       spreadMethod="pad"
       cx="0"
       cy="0"
       fx="0"
       fy="0"
       r="1" /></defs><sodipodi:namedview
     inkscape:window-height="723"
     inkscape:window-width="789"
     inkscape:pageshadow="2"
     inkscape:pageopacity="0.0"
     guidetolerance="10.0"
     gridtolerance="10.0"
     objecttolerance="10.0"
     borderopacity="1.0"
     bordercolor="#666666"
     pagecolor="#ffffff"
     id="base"
     showgrid="false"
     inkscape:zoom="4.98"
     inkscape:cx="54.845253"
     inkscape:cy="52.104303"
     inkscape:window-x="1440"
     inkscape:window-y="22"
     inkscape:current-layer="g2452" /><g
     id="g2452"
     inkscape:groupmode="layer"
     inkscape:label="T-CahierDesNormesA4-19"
     transform="matrix(1.25,0,0,-1.25,-141.73255,699.36512)"><g
       id="g2628"
       clip-path="url(#clipPath2630)"
       transform="translate(0.3999997,-1.2021287)"><g
         id="g2634"><g
           id="g2636"><g
             id="g2642"><path
               d="M 145.9594,559.4358 C 136.8141,560 128.5649,556.4265 121.4415,548.8132 C 112.1673,538.9005 112.343,531.9583 114.8735,519.5255 C 116.5325,511.3784 121.3692,503.5121 128.1434,497.9437 C 136.018,491.472 145.2712,489.806 154.9,493.1292 C 165.5116,496.7924 175.662,507.2785 179.586,518.6301 C 183.8592,531.0027 180.5756,542.2186 170.5744,549.3998 C 161.9644,555.5835 153.6836,558.9593 145.9594,559.4358"
               style="fill:url(#radialGradient3162);stroke:none"
               id="path2650" /></g></g></g><g
         id="g2652"><path
           d="M 142.7422,498.0352 C 142.7422,497.7501 142.9719,497.6488 143.6391,497.6488 C 144.2001,497.6488 144.5548,497.7225 144.5548,498.0672 C 144.5548,498.4077 144.2043,498.4861 143.6758,498.4861 C 143.0829,498.4861 142.7422,498.4169 142.7422,498.0352 z M 144.5821,498.4861 L 144.5821,498.4769 C 144.743,498.412 144.9501,498.2884 144.9501,497.9332 C 144.9501,497.3549 144.4668,497.1241 143.6165,497.1241 C 142.5161,497.1241 142.3462,497.5108 142.3462,497.8881 C 142.3462,498.1544 142.4798,498.3568 142.7008,498.4489 L 142.7008,498.4585 L 141.6016,498.4585 L 141.6016,498.9552 L 144.886,498.9552 L 144.886,498.4861"
           style="fill:#ffffff;fill-opacity:1;fill-rule:nonzero;stroke:none"
           id="path2654" /><path
           d="M 143.3719,500.6573 L 143.2391,500.6573 C 142.9258,500.6573 142.6868,500.5552 142.6868,500.2744 C 142.6868,499.958 142.9993,499.8612 143.3212,499.8612 L 143.3719,499.8612 L 143.3719,500.6573 z M 143.7126,499.8612 L 143.8555,499.8612 C 144.1868,499.8612 144.6094,499.9024 144.6094,500.2744 C 144.6094,500.6292 144.2043,500.6713 144.0579,500.6713 L 144.0579,501.14 C 144.6048,501.14 144.9501,500.8084 144.9501,500.2712 C 144.9501,499.8652 144.8305,499.3644 143.6852,499.3644 C 143.0368,499.3644 142.3462,499.5024 142.3462,500.2796 C 142.3462,500.9696 142.7598,501.154 143.4508,501.154 L 143.7126,501.154 L 143.7126,499.8612 z M 141.4266,500.3396 L 141.4266,500.8916 L 142.0891,500.404 L 142.0891,500.0628"
           style="fill:#ffffff;fill-opacity:1;fill-rule:nonzero;stroke:none"
           id="path2656" /><path
           d="M 144.5548,502.4556 C 144.5548,502.74 144.343,502.8696 143.6579,502.8696 C 143.0962,502.8696 142.7422,502.7956 142.7422,502.4509 C 142.7422,502.1104 143.0915,502.032 143.6204,502.032 C 144.2137,502.032 144.5548,502.106 144.5548,502.4556 z M 142.411,501.5628 L 142.411,502.032 L 142.7141,502.032 L 142.7141,502.0412 C 142.4938,502.1432 142.3462,502.3265 142.3462,502.5981 C 142.3462,503.164 142.8298,503.3936 143.6805,503.3936 C 144.72,503.3936 144.9501,502.9712 144.9501,502.6305 C 144.9501,502.3636 144.8165,502.1608 144.5962,502.0684 L 144.5962,502.06 L 145.695,502.06 L 145.695,501.5628"
           style="fill:#ffffff;fill-opacity:1;fill-rule:nonzero;stroke:none"
           id="path2658" /><path
           d="M 143.579,504.9304 C 143.6805,504.8012 143.7399,504.5256 143.8091,504.378 C 143.8782,504.2356 144.0254,504.176 144.2094,504.176 C 144.4165,504.176 144.5821,504.2768 144.5821,504.484 C 144.5821,504.7824 144.3563,504.9304 143.993,504.9304 L 143.579,504.9304 z M 144.3704,505.4001 C 144.4626,505.4001 144.5454,505.4544 144.5454,505.5276 C 144.5454,505.5604 144.5403,505.5932 144.5309,505.6108 L 144.8532,505.6108 C 144.8805,505.5512 144.9134,505.4636 144.9134,505.3672 C 144.9134,505.1468 144.8258,504.962 144.5868,504.948 L 144.5868,504.9388 C 144.8305,504.806 144.9501,504.6124 144.9501,504.3232 C 144.9501,503.9272 144.7286,503.6788 144.2555,503.6788 C 143.7032,503.6788 143.5883,503.9188 143.4782,504.2536 L 143.3719,504.6409 C 143.3212,504.82 143.2712,504.9304 143.0548,504.9304 C 142.8298,504.9304 142.6868,504.8524 142.6868,504.5901 C 142.6868,504.2584 142.9212,504.212 143.161,504.212 L 143.161,503.7436 C 142.636,503.7436 142.3462,503.9592 142.3462,504.6124 C 142.3462,505.0496 142.5161,505.4001 142.954,505.4001"
           style="fill:#ffffff;fill-opacity:1;fill-rule:nonzero;stroke:none"
           id="path2660" /><path
           d="M 143.1329,506.9724 L 143.0684,506.9724 C 142.8712,506.9724 142.6868,506.9036 142.6868,506.6456 C 142.6868,506.448 142.7786,506.292 143.0086,506.292 C 143.2024,506.292 143.2805,506.3792 143.3719,506.6412 L 143.4829,506.9584 C 143.6071,507.3264 143.8048,507.4964 144.195,507.4964 C 144.7243,507.4964 144.9501,507.1104 144.9501,506.6093 C 144.9501,505.9832 144.6602,505.7949 144.1821,505.7949 L 144.0899,505.7949 L 144.0899,506.2364 L 144.168,506.2364 C 144.4532,506.2364 144.6094,506.3372 144.6094,506.6233 C 144.6094,506.894 144.4712,507.0276 144.2462,507.0276 C 144.0618,507.0276 143.943,506.9308 143.8829,506.756 L 143.7399,506.3512 C 143.6118,505.9784 143.4227,505.8228 143.0274,505.8228 C 142.5622,505.8228 142.3462,506.1584 142.3462,506.6684 C 142.3462,507.2989 142.7141,507.442 143.0223,507.442 L 143.1329,507.442"
           style="fill:#ffffff;fill-opacity:1;fill-rule:nonzero;stroke:none"
           id="path2662" /><path
           d="M 143.1329,508.9316 L 143.0684,508.9316 C 142.8712,508.9316 142.6868,508.8628 142.6868,508.6053 C 142.6868,508.4076 142.7786,508.2512 143.0086,508.2512 C 143.2024,508.2512 143.2805,508.3388 143.3719,508.6005 L 143.4829,508.9184 C 143.6071,509.2856 143.8048,509.456 144.195,509.456 C 144.7243,509.456 144.9501,509.07 144.9501,508.5685 C 144.9501,507.9428 144.6602,507.7544 144.1821,507.7544 L 144.0899,507.7544 L 144.0899,508.1956 L 144.168,508.1956 C 144.4532,508.1956 144.6094,508.2972 144.6094,508.5825 C 144.6094,508.8536 144.4712,508.9872 144.2462,508.9872 C 144.0618,508.9872 143.943,508.8904 143.8829,508.7152 L 143.7399,508.3104 C 143.6118,507.9388 143.4227,507.7816 143.0274,507.7816 C 142.5622,507.7816 142.3462,508.1176 142.3462,508.6276 C 142.3462,509.2585 142.7141,509.4012 143.0223,509.4012 L 143.1329,509.4012"
           style="fill:#ffffff;fill-opacity:1;fill-rule:nonzero;stroke:none"
           id="path2664" /><path
           d="M 143.3719,511.048 L 143.2391,511.048 C 142.9258,511.048 142.6868,510.9464 142.6868,510.666 C 142.6868,510.3488 142.9993,510.252 143.3212,510.252 L 143.3719,510.252 L 143.3719,511.048 z M 143.7126,510.252 L 143.8555,510.252 C 144.1868,510.252 144.6094,510.2936 144.6094,510.666 C 144.6094,511.02 144.2043,511.0612 144.0579,511.0612 L 144.0579,511.5309 C 144.6048,511.5309 144.9501,511.1996 144.9501,510.6613 C 144.9501,510.2568 144.8305,509.7552 143.6852,509.7552 C 143.0368,509.7552 142.3462,509.8936 142.3462,510.6709 C 142.3462,511.3604 142.7598,511.5448 143.4508,511.5448 L 143.7126,511.5448"
           style="fill:#ffffff;fill-opacity:1;fill-rule:nonzero;stroke:none"
           id="path2666" /><path
           d="M 142.411,511.9544 L 142.411,512.4512 L 142.7966,512.4512 L 142.7966,512.46 C 142.5212,512.5708 142.3462,512.7545 142.3462,513.0349 C 142.3462,513.0905 142.3555,513.1224 142.3649,513.1544 L 142.8712,513.1544 C 142.8618,513.1176 142.843,513.0308 142.843,512.9481 C 142.843,512.7224 142.9446,512.4512 143.4048,512.4512 L 144.886,512.4512 L 144.886,511.9544"
           style="fill:#ffffff;fill-opacity:1;fill-rule:nonzero;stroke:none"
           id="path2668" /><path
           d="M 141.6016,514.4076 L 144.886,514.4076 L 144.886,514.6832 L 141.6016,514.6832 L 141.6016,514.4076 z"
           style="fill:#ffffff;fill-opacity:1;fill-rule:nonzero;stroke:none"
           id="path2670" /><path
           d="M 143.4462,516.4677 C 142.8383,516.4592 142.618,516.2888 142.618,515.9481 C 142.618,515.6076 142.8383,515.4373 143.4462,515.4276 L 143.4462,516.4677 z M 144.0758,516.7396 C 144.5962,516.6981 144.9407,516.412 144.9407,515.9529 C 144.9407,515.4373 144.5821,515.134 143.6618,515.134 C 142.8153,515.134 142.3876,515.4373 142.3876,515.9756 C 142.3876,516.5184 142.7598,516.762 143.5743,516.762 L 143.6758,516.762 L 143.6758,515.4276 L 143.7903,515.4276 C 144.4942,515.4276 144.7106,515.6765 144.7106,515.9481 C 144.7106,516.238 144.5036,516.4169 144.0758,516.4628"
           style="fill:#ffffff;fill-opacity:1;fill-rule:nonzero;stroke:none"
           id="path2672" /><path
           d="M 143.6712,517.5808 C 143.5372,517.2357 143.3352,517.112 143.0915,517.112 C 142.5899,517.112 142.3876,517.4249 142.3876,517.8388 C 142.3876,518.2988 142.6231,518.5104 143.0684,518.5104 L 143.1376,518.5104 L 143.1376,518.234 L 143.0684,518.234 C 142.7516,518.234 142.618,518.0872 142.618,517.834 C 142.618,517.512 142.788,517.3881 143.0317,517.3881 C 143.2024,517.3881 143.3352,517.4437 143.4415,517.7192 L 143.593,518.1193 C 143.7172,518.4504 143.9469,518.5749 144.2137,518.5749 C 144.6329,518.5749 144.9407,518.3356 144.9407,517.8201 C 144.9407,517.3184 144.7336,517.0701 144.1821,517.0701 L 144.104,517.0701 L 144.104,517.3464 L 144.168,517.3464 C 144.5266,517.3464 144.7106,517.5028 144.7106,517.8152 C 144.7106,518.11 144.5454,518.2988 144.2743,518.2988 C 144.0579,518.2988 143.9196,518.2112 143.8227,517.9677"
           style="fill:#ffffff;fill-opacity:1;fill-rule:nonzero;stroke:none"
           id="path2674" /><path
           d="M 142.7786,520.1374 L 142.7786,519.7925 L 142.411,519.7925 L 142.411,520.1374 L 142.1805,520.1374 C 141.7118,520.1374 141.5641,520.3624 141.5641,520.7677 C 141.5641,520.8729 141.5684,520.9653 141.5778,521.0389 L 141.9602,521.0389 L 141.9602,520.9011 C 141.9602,520.7169 142.0286,520.6343 142.1946,520.6343 L 142.411,520.6343 L 142.411,521.0389 L 142.7786,521.0389 L 142.7786,520.6343 L 144.886,520.6343 L 144.886,520.1374"
           style="fill:#ffffff;fill-opacity:1;fill-rule:nonzero;stroke:none"
           id="path2676" /><path
           d="M 142.411,521.2644 L 142.411,521.7612 L 142.7966,521.7612 L 142.7966,521.7702 C 142.5212,521.8811 142.3462,522.0647 142.3462,522.3448 C 142.3462,522.4005 142.3555,522.4325 142.3649,522.4647 L 142.8712,522.4647 C 142.8618,522.4278 142.843,522.3405 142.843,522.2581 C 142.843,522.0327 142.9446,521.7612 143.4048,521.7612 L 144.886,521.7612 L 144.886,521.2644"
           style="fill:#ffffff;fill-opacity:1;fill-rule:nonzero;stroke:none"
           id="path2678" /><path
           d="M 144.5821,523.5366 C 144.5821,523.8997 144.2778,523.9647 143.6485,523.9647 C 143.1008,523.9647 142.7141,523.8997 142.7141,523.5366 C 142.7141,523.1778 143.1008,523.1138 143.6485,523.1138 C 144.2778,523.1138 144.5821,523.1778 144.5821,523.5366 z M 142.3462,523.5366 C 142.3462,524.2593 142.8798,524.4616 143.6485,524.4616 C 144.4165,524.4616 144.9501,524.2268 144.9501,523.5366 C 144.9501,522.8512 144.4165,522.6169 143.6485,522.6169 C 142.8798,522.6169 142.3462,522.8187 142.3462,523.5366"
           style="fill:#ffffff;fill-opacity:1;fill-rule:nonzero;stroke:none"
           id="path2680" /><path
           d="M 142.411,524.8427 L 142.411,525.3124 L 142.7008,525.3124 L 142.7008,525.3262 C 142.4798,525.4499 142.3462,525.6851 142.3462,525.9608 C 142.3462,526.338 142.5161,526.577 143.0181,526.577 L 144.886,526.577 L 144.886,526.0801 L 143.1884,526.0801 C 142.8665,526.0801 142.7422,525.9843 142.7422,525.7358 C 142.7422,525.5331 142.9032,525.3395 143.2251,525.3395 L 144.886,525.3395 L 144.886,524.8427"
           style="fill:#ffffff;fill-opacity:1;fill-rule:nonzero;stroke:none"
           id="path2682" /><path
           d="M 142.411,526.8348 L 142.411,527.1749 L 141.7071,527.1749 L 141.7071,527.6718 L 142.411,527.6718 L 142.411,528.0767 L 142.7786,528.0767 L 142.7786,527.6718 L 144.2555,527.6718 C 144.4481,527.6718 144.518,527.7272 144.518,527.8975 C 144.518,527.971 144.513,528.0309 144.5036,528.0767 L 144.8719,528.0767 C 144.8993,527.971 144.9134,527.8328 144.9134,527.6768 C 144.9134,527.3403 144.8212,527.1749 144.3149,527.1749 L 142.7786,527.1749 L 142.7786,526.8348"
           style="fill:#ffffff;fill-opacity:1;fill-rule:nonzero;stroke:none"
           id="path2684" /><path
           d="M 142.411,528.3575 L 142.411,528.8544 L 144.886,528.8544 L 144.886,528.3575 L 142.411,528.3575 z M 141.5641,528.3575 L 141.5641,528.8544 L 142.061,528.8544 L 142.061,528.3575"
           style="fill:#ffffff;fill-opacity:1;fill-rule:nonzero;stroke:none"
           id="path2686" /><path
           d="M 143.3719,530.5794 L 143.2391,530.5794 C 142.9258,530.5794 142.6868,530.4778 142.6868,530.1976 C 142.6868,529.8799 142.9993,529.7833 143.3212,529.7833 L 143.3719,529.7833 L 143.3719,530.5794 z M 143.7126,529.7833 L 143.8555,529.7833 C 144.1868,529.7833 144.6094,529.8247 144.6094,530.1976 C 144.6094,530.5513 144.2043,530.5928 144.0579,530.5928 L 144.0579,531.0624 C 144.6048,531.0624 144.9501,530.731 144.9501,530.1928 C 144.9501,529.788 144.8305,529.2864 143.6852,529.2864 C 143.0368,529.2864 142.3462,529.4249 142.3462,530.2018 C 142.3462,530.8921 142.7598,531.0757 143.4508,531.0757 L 143.7126,531.0757 L 143.7126,529.7833 z M 141.4266,529.6639 L 141.4266,530.2153 L 142.0891,530.4919 L 142.0891,530.1514"
           style="fill:#ffffff;fill-opacity:1;fill-rule:nonzero;stroke:none"
           id="path2688" /><path
           d="M 142.411,531.4857 L 142.411,531.9817 L 142.7966,531.9817 L 142.7966,531.9911 C 142.5212,532.1018 142.3462,532.2859 142.3462,532.5663 C 142.3462,532.6218 142.3555,532.6537 142.3649,532.686 L 142.8712,532.686 C 142.8618,532.6492 142.843,532.5616 142.843,532.4786 C 142.843,532.2536 142.9446,531.9817 143.4048,531.9817 L 144.886,531.9817 L 144.886,531.4857"
           style="fill:#ffffff;fill-opacity:1;fill-rule:nonzero;stroke:none"
           id="path2690" /><path
           d="M 143.3719,534.1311 L 143.2391,534.1311 C 142.9258,534.1311 142.6868,534.0295 142.6868,533.7489 C 142.6868,533.4319 142.9993,533.335 143.3212,533.335 L 143.3719,533.335 L 143.3719,534.1311 z M 143.7126,533.335 L 143.8555,533.335 C 144.1868,533.335 144.6094,533.3764 144.6094,533.7489 C 144.6094,534.103 144.2043,534.1445 144.0579,534.1445 L 144.0579,534.614 C 144.6048,534.614 144.9501,534.2827 144.9501,533.7443 C 144.9501,533.3397 144.8305,532.8382 143.6852,532.8382 C 143.0368,532.8382 142.3462,532.9762 142.3462,533.7536 C 142.3462,534.4435 142.7598,534.628 143.4508,534.628 L 143.7126,534.628"
           style="fill:#ffffff;fill-opacity:1;fill-rule:nonzero;stroke:none"
           id="path2692" /><path
           d="M 143.1329,536.1046 L 143.0684,536.1046 C 142.8712,536.1046 142.6868,536.0359 142.6868,535.778 C 142.6868,535.58 142.7786,535.4235 143.0086,535.4235 C 143.2024,535.4235 143.2805,535.511 143.3719,535.7733 L 143.4829,536.0905 C 143.6071,536.4583 143.8048,536.6288 144.195,536.6288 C 144.7243,536.6288 144.9501,536.2425 144.9501,535.7405 C 144.9501,535.1155 144.6602,534.9266 144.1821,534.9266 L 144.0899,534.9266 L 144.0899,535.3687 L 144.168,535.3687 C 144.4532,535.3687 144.6094,535.4692 144.6094,535.7547 C 144.6094,536.0264 144.4712,536.1591 144.2462,536.1591 C 144.0618,536.1591 143.943,536.0632 143.8829,535.8881 L 143.7399,535.4833 C 143.6118,535.1108 143.4227,534.9544 143.0274,534.9544 C 142.5622,534.9544 142.3462,535.2905 142.3462,535.8007 C 142.3462,536.431 142.7141,536.5737 143.0223,536.5737 L 143.1329,536.5737"
           style="fill:#ffffff;fill-opacity:1;fill-rule:nonzero;stroke:none"
           id="path2694" /><path
           d="M 134.7106,527.1761 L 132.3774,527.1761 L 132.3743,527.11 C 132.3555,526.6575 132.0868,522.6878 128.5345,522.6878 C 125.3602,522.6878 123.7493,525.5325 123.7462,531.1434 C 123.7493,536.7544 125.3602,539.5993 128.5345,539.5993 C 132.1473,539.5993 132.3672,535.3575 132.3743,535.1772 L 132.3774,535.1116 L 134.7106,535.1116 C 134.9262,535.1116 135.1352,535.1999 135.2852,535.3538 C 135.4286,535.5016 135.5028,535.6929 135.493,535.8919 C 135.4446,536.9927 134.8805,542.4843 128.5016,542.4843 C 123.3473,542.4843 120.6227,538.5671 120.6227,531.1553 C 120.6227,523.7288 123.3473,519.8028 128.5016,519.8028 C 134.6403,519.8028 135.4044,524.8184 135.4922,526.3553 C 135.5079,526.5677 135.4344,526.7714 135.286,526.9278 C 135.1368,527.0858 134.9267,527.1761 134.7106,527.1761"
           style="fill:#ffffff;fill-opacity:1;fill-rule:nonzero;stroke:none"
           id="path2696" /><path
           d="M 168.566,532.4921 L 168.5668,532.4913 L 166.5572,533.3679 C 164.6244,534.217 163.9392,535.0427 163.9392,536.5256 C 163.9392,538.4585 165.3528,539.7578 167.4576,539.7578 C 168.7016,539.7578 169.7224,539.5026 170.9684,538.2335 L 171.0368,538.1639 L 172.1092,539.145 C 172.7304,539.7216 172.5504,540.2409 172.2912,540.5746 C 171.2448,541.8089 169.5656,542.4866 167.5604,542.4866 C 163.6924,542.4866 160.8852,539.9636 160.8852,536.4872 C 160.8852,533.0686 163.0392,531.6395 165.3664,530.605 L 167.4164,529.6895 C 169.4776,528.7653 170.4592,527.9772 170.4592,525.9944 C 170.4592,523.2903 168.0152,522.5693 166.5716,522.5693 C 165.3292,522.5693 163.9464,522.835 162.2472,524.76 L 162.1808,524.8358 L 161.0636,523.8544 C 160.4892,523.3491 160.484,522.9153 161.0444,522.1948 C 162.5824,520.2178 164.8372,519.8028 166.4588,519.8028 C 169.9636,519.8028 173.5132,521.9561 173.5132,526.0708 C 173.5132,529.6325 171.5356,531.2137 168.566,532.4921"
           style="fill:#66cde2;fill-opacity:1;fill-rule:nonzero;stroke:none"
           id="path2698" /><path
           d="M 150.3512,535.995 C 150.3512,539.4966 147.5137,542.4632 144.011,542.4632 C 142.3634,542.4632 140.8634,541.8351 139.736,540.8047 L 139.736,542.0085 L 137.6266,542.0085 C 136.9907,542.0085 136.7485,541.5936 136.7485,541.1171 L 136.7485,520.6841 C 136.7485,520.1093 137.0993,519.8018 137.6169,519.8018 L 139.7266,519.8018 C 139.7266,519.8018 139.7266,535.8702 139.7266,535.871 C 139.7266,537.9817 141.438,539.6935 143.5493,539.6935 C 145.6602,539.6935 147.3723,537.9817 147.3723,535.871 C 147.3723,535.8702 147.3723,519.7989 147.3723,519.7989 L 149.4684,519.7989 C 150.0497,519.7989 150.3512,520.1216 150.3512,520.678 C 150.3512,520.678 150.3512,535.9749 150.3512,535.995"
           style="fill:#66cde2;fill-opacity:1;fill-rule:nonzero;stroke:none"
           id="path2700" /><path
           d="M 161.2464,540.9357 C 161.3568,541.0723 161.4248,541.244 161.4248,541.4325 C 161.4248,541.7841 161.1952,542.0794 160.8804,542.1866 C 160.27,542.3909 159.62,542.503 158.944,542.503 C 157.2964,542.503 155.7964,541.8749 154.6688,540.8448 L 154.6688,542.0483 L 152.5594,542.0483 C 151.9239,542.0483 151.6809,541.6335 151.6809,541.1567 L 151.6809,520.7241 C 151.6809,520.1489 152.0329,519.8415 152.5501,519.8415 L 154.6596,519.8415 C 154.6596,519.8415 154.6596,535.9099 154.6596,535.9106 C 154.6596,538.0218 156.3716,539.7335 158.4828,539.7335 C 159.036,539.7335 159.5604,539.6133 160.0348,539.402 L 161.2536,540.9313"
           style="fill:#ffffff;fill-opacity:1;fill-rule:nonzero;stroke:none"
           id="path2702" /></g></g></g></svg>